<?xml version="1.0" standalone="no"?>
<!DOCTYPE svg PUBLIC "-//W3C//DTD SVG 20010904//EN"
 "http://www.w3.org/TR/2001/REC-SVG-20010904/DTD/svg10.dtd">
<svg version="1.0" xmlns="http://www.w3.org/2000/svg"
 width="225.000000pt" height="225.000000pt" viewBox="0 0 225.000000 225.000000"
 preserveAspectRatio="xMidYMid meet">

<g transform="translate(0.000000,225.000000) scale(0.100000,-0.100000)"
fill="#000000" stroke="none">
<path d="M1025 1889 c-33 -5 -92 -24 -132 -44 -170 -84 -243 -252 -200 -460
13 -60 13 -74 1 -97 -19 -36 -18 -140 1 -185 9 -20 28 -53 43 -72 40 -53 115
-265 115 -327 1 -62 -33 -125 -93 -177 -22 -19 -182 -107 -355 -197 l-315
-163 0 -84 0 -83 1035 0 1035 0 0 84 0 84 -297 153 c-329 168 -367 191 -412
248 -61 77 -77 152 -44 214 9 18 31 75 48 129 20 62 42 109 63 132 51 58 68
168 37 242 -13 31 -13 44 2 112 21 104 14 181 -25 259 -63 124 -187 212 -328
233 -79 11 -96 11 -179 -1z"/>
</g>
</svg>
