<?xml version="1.0" standalone="no"?>
<!DOCTYPE svg PUBLIC "-//W3C//DTD SVG 20010904//EN"
 "http://www.w3.org/TR/2001/REC-SVG-20010904/DTD/svg10.dtd">
<svg version="1.0" xmlns="http://www.w3.org/2000/svg"
 width="775.000000pt" height="322.000000pt" viewBox="0 0 775.000000 322.000000"
 preserveAspectRatio="xMidYMid meet">

<g transform="translate(0.000000,322.000000) scale(0.100000,-0.100000)"
fill="#000000" stroke="none">
<path d="M960 3023 c-207 -24 -565 -235 -637 -376 -19 -38 -22 -52 -12 -58 9
-5 5 -24 -18 -75 -23 -53 -28 -72 -20 -85 13 -21 9 -34 -62 -209 -28 -68 -51
-129 -51 -134 0 -5 13 3 30 19 16 16 33 26 36 22 3 -3 -1 -27 -10 -53 -9 -26
-14 -49 -12 -51 2 -2 15 2 30 8 14 7 28 10 31 8 2 -3 -5 -29 -16 -58 -11 -30
-17 -56 -14 -59 3 -3 22 11 43 31 21 20 42 37 48 37 6 0 11 -32 12 -76 1 -42
4 -79 7 -82 3 -3 40 30 83 74 46 48 105 96 148 121 45 27 91 66 128 108 32 36
61 64 63 61 3 -2 -36 -69 -85 -148 -157 -252 -246 -446 -255 -558 -8 -99 -10
-114 -20 -121 -5 -4 -10 -18 -10 -33 -1 -14 -5 -26 -8 -26 -4 0 -9 -10 -12
-21 -3 -13 -2 -18 3 -13 9 9 130 224 130 231 0 9 92 142 107 154 14 12 15 11
8 -11 -4 -14 -32 -77 -62 -140 -31 -63 -67 -140 -80 -170 -14 -30 -38 -83 -54
-118 -16 -34 -32 -76 -36 -92 -3 -16 -9 -27 -14 -24 -5 3 -9 -3 -9 -13 0 -11
-5 -24 -10 -29 -6 -6 -8 -18 -4 -27 4 -10 39 52 104 181 86 173 207 378 217
368 2 -2 -10 -28 -28 -57 -46 -79 -224 -477 -216 -485 1 -2 25 42 51 97 27 55
54 98 60 96 15 -6 13 -14 -59 -172 -35 -77 -67 -154 -71 -170 -7 -27 -6 -28 8
-15 15 16 69 108 65 113 -4 4 56 117 60 113 3 -2 -8 -28 -23 -58 -16 -29 -29
-55 -29 -58 -1 -3 -5 -13 -10 -23 -4 -10 -5 -21 -1 -24 3 -3 13 10 21 30 30
72 251 427 275 442 4 3 -32 -61 -81 -142 -86 -142 -100 -171 -79 -158 6 4 7
-1 3 -11 -4 -11 -8 -13 -11 -6 -5 16 -22 5 -22 -14 0 -8 4 -13 9 -10 5 3 -7
-24 -25 -60 -19 -36 -31 -70 -28 -76 4 -6 3 -8 -4 -4 -6 3 -14 -3 -17 -15 -6
-17 -9 -19 -17 -8 -7 10 -8 8 -3 -8 7 -24 -6 -54 -39 -93 -11 -14 -17 -22 -12
-18 5 4 14 3 21 -2 8 -7 18 3 35 33 30 55 270 417 277 417 5 0 3 -4 -117 -200
-45 -74 -93 -157 -107 -184 l-25 -50 23 16 c28 17 78 33 121 36 10 1 43 37 75
79 31 43 74 99 95 124 21 25 38 49 38 52 0 4 -17 6 -37 5 l-38 -3 -3 521 c-2
490 2 626 21 624 12 -1 147 94 205 144 30 25 50 46 45 46 -4 0 -1 5 7 9 15 9
200 14 438 12 l132 -1 0 -35 0 -34 142 -3 142 -3 27 -85 c15 -47 79 -260 144
-475 64 -214 121 -396 125 -404 4 -8 17 19 33 70 19 63 228 763 263 882 5 15
21 17 150 17 l144 0 0 35 0 35 88 1 c48 0 239 2 424 2 l338 2 0 -35 0 -35 202
0 203 0 19 -38 18 -38 22 19 c26 24 163 102 179 102 9 0 8 3 0 8 -9 6 0 17 27
39 l40 30 -29 24 -30 24 22 12 c20 11 19 12 -13 7 -27 -4 -31 -3 -19 5 10 6
52 17 95 24 l79 13 -74 23 c-40 12 -80 20 -88 17 -8 -3 -12 -2 -8 3 5 9 -10
14 -95 27 -125 20 -413 -4 -624 -51 -60 -14 -111 -23 -113 -21 -6 5 193 53
292 70 50 9 139 20 198 26 101 9 207 41 207 62 0 13 -73 28 -135 28 -33 0 -78
5 -100 10 -118 29 -627 -76 -1020 -209 -149 -50 -219 -66 -165 -37 44 24 380
133 510 166 161 41 286 65 490 95 91 13 176 28 190 34 24 9 24 10 -10 10 -19
1 -113 -8 -209 -19 -96 -11 -176 -18 -178 -16 -2 2 17 7 42 11 26 3 44 9 42
12 -20 19 -449 -85 -702 -170 l-160 -54 -80 28 c-44 15 -93 30 -108 34 -24 5
-27 8 -17 21 18 21 -11 51 -80 81 l-54 25 24 19 25 19 -31 0 c-18 0 -45 7 -60
15 -16 8 -46 15 -66 15 -46 0 -50 15 -6 24 17 3 29 8 27 10 -8 8 -342 -62
-467 -98 -67 -20 -171 -54 -230 -76 -59 -23 -109 -42 -112 -42 -3 -1 -38 4
-78 11 -133 24 -318 -12 -475 -90 -141 -71 -265 -166 -426 -329 -66 -66 -87
-83 -56 -46 212 253 533 454 769 482 38 5 53 11 53 22 0 12 -13 14 -80 9 -274
-22 -515 -167 -821 -497 -44 -47 -70 -71 -58 -54 63 92 238 264 357 352 203
150 387 214 615 214 l115 0 -90 22 c-216 54 -461 -23 -730 -231 -69 -54 -70
-54 -20 -8 60 56 186 141 272 184 156 78 340 112 503 93 52 -7 95 -10 97 -8 6
5 -161 65 -230 82 -47 13 -74 13 -144 5 -48 -6 -88 -9 -90 -7 -5 4 115 26 144
26 26 0 52 28 32 34 -74 23 -208 9 -344 -36 -103 -34 -297 -134 -375 -194 -41
-31 -67 -48 -57 -37 31 36 170 131 250 171 93 48 243 97 352 116 l80 14 -60 0
c-33 -1 -76 -3 -95 -5z m57 -99 c-3 -3 -12 -4 -19 -1 -8 3 -5 6 6 6 11 1 17
-2 13 -5z m-47 -13 c-8 -5 -26 -11 -40 -15 -21 -5 -20 -3 5 9 32 15 60 20 35
6z m-80 -31 c-8 -5 -19 -10 -25 -10 -5 0 -3 5 5 10 8 5 20 10 25 10 6 0 3 -5
-5 -10z m50 -30 c-8 -5 -19 -10 -25 -10 -5 0 -3 5 5 10 8 5 20 10 25 10 6 0 3
-5 -5 -10z m-142 -72 c-59 -35 -142 -91 -185 -125 -76 -60 -216 -198 -282
-278 -18 -22 -28 -31 -23 -20 34 68 245 278 357 355 56 39 217 130 229 130 6
0 -38 -28 -96 -62z m667 -108 c-54 -10 -189 -20 -182 -14 9 9 101 22 162 22
56 0 57 -1 20 -8z m2000 -50 c-11 -5 -27 -9 -35 -9 -9 0 -8 4 5 9 11 5 27 9
35 9 9 0 8 -4 -5 -9z m-58 -16 c-3 -3 -12 -4 -19 -1 -8 3 -5 6 6 6 11 1 17 -2
13 -5z m-2727 -17 c0 -2 -12 -14 -27 -28 l-28 -24 24 28 c23 25 31 32 31 24z
m2023 -14 c-7 -2 -21 -2 -30 0 -10 3 -4 5 12 5 17 0 24 -2 18 -5z m-1493 -8
c0 -2 -13 -11 -30 -20 -38 -19 -40 -11 -2 9 31 17 32 18 32 11z m-590 -28 c0
-2 -19 -21 -42 -42 l-43 -40 40 43 c36 39 45 47 45 39z m3297 -23 c-3 -3 -12
-4 -19 -1 -8 3 -5 6 6 6 11 1 17 -2 13 -5z m-57 -13 c-51 -15 -94 -21 -85 -12
10 9 49 17 90 19 15 0 14 -2 -5 -7z m-3360 -84 c0 -2 -19 -21 -42 -42 l-43
-40 40 43 c36 39 45 47 45 39z m177 -1462 c-24 -23 -30 -18 -10 9 10 13 19 20
21 15 2 -5 -3 -16 -11 -24z m-45 -66 c-10 -18 -25 -34 -32 -37 -10 -2 -11 -1
-4 5 6 4 19 22 29 40 11 18 21 31 22 29 2 -2 -4 -18 -15 -37z"/>
<path d="M6170 2910 c41 -11 89 -19 105 -19 44 1 -53 27 -125 33 -55 5 -55 5
20 -14z"/>
<path d="M6040 2904 c114 -39 128 -53 53 -55 l-48 -1 45 -10 c25 -5 92 -20
149 -34 109 -26 187 -25 159 1 -19 19 -134 65 -198 80 -54 13 -189 29 -160 19z"/>
<path d="M6050 2801 l-45 -6 50 -9 c28 -4 92 -19 144 -32 51 -13 95 -24 97
-24 14 0 1 -20 -13 -21 -15 0 -15 -2 2 -9 19 -9 -84 -3 -112 6 -7 2 -13 -1
-13 -6 0 -6 10 -10 23 -10 61 0 372 -102 489 -161 56 -28 61 -29 43 -9 -22 25
-113 97 -189 149 -136 93 -345 151 -476 132z"/>
<path d="M6080 2655 c30 -8 66 -15 80 -16 20 -1 18 -3 -10 -9 l-35 -7 31 -2
c16 0 34 -5 40 -10 5 -5 38 -17 74 -26 36 -9 128 -37 205 -62 77 -24 146 -46
153 -48 6 -3 12 -3 12 -1 0 7 -218 126 -256 139 -48 17 -197 44 -284 51 l-65
6 55 -15z"/>
<path d="M6088 2633 c7 -3 16 -2 19 1 4 3 -2 6 -13 5 -11 0 -14 -3 -6 -6z"/>
<path d="M5885 2580 l40 -6 -35 -7 c-19 -3 -89 -9 -155 -12 -161 -8 -386 -41
-570 -84 -119 -28 -45 -25 87 3 249 54 388 70 633 70 196 0 249 -3 358 -23 71
-12 147 -29 169 -37 54 -19 60 -17 18 6 l-35 19 30 1 c94 2 -147 56 -313 70
-135 11 -293 12 -227 0z"/>
<path d="M6178 2498 c29 -5 50 -14 46 -19 -6 -10 113 -5 122 4 6 5 -164 27
-197 26 -13 -1 0 -6 29 -11z"/>
<path d="M5861 2313 c1 -49 4 -79 6 -68 3 11 14 32 25 47 15 22 16 27 4 22 -9
-3 -16 -1 -16 5 0 6 11 11 24 11 13 0 43 16 66 35 l42 35 -76 0 -76 0 1 -87z"/>
<path d="M4435 2359 c-22 -11 -32 -17 -22 -14 11 3 30 8 43 11 13 3 24 10 24
15 0 11 4 12 -45 -12z"/>
<path d="M6646 2332 c-6 -43 -2 -52 28 -52 25 0 189 -78 221 -105 l20 -17 -20
7 c-36 12 -248 65 -250 63 -2 -2 -6 -30 -10 -63 -3 -33 -8 -62 -10 -64 -2 -2
-28 10 -57 27 -74 42 -149 62 -232 62 -124 -1 -186 -47 -186 -137 0 -80 42
-115 212 -178 48 -18 107 -44 130 -58 45 -26 138 -112 138 -127 0 -4 18 -7 39
-7 22 1 37 5 34 10 -2 4 -10 4 -16 1 -7 -4 -9 -3 -5 1 24 26 121 5 261 -57 38
-16 71 -27 74 -25 6 7 -118 79 -186 108 -30 12 -50 24 -44 26 8 3 56 -12 198
-60 11 -4 -11 8 -50 27 -38 20 -67 35 -64 36 18 1 168 -54 240 -89 46 -22 85
-38 87 -36 10 10 -286 142 -408 183 -77 25 -138 47 -136 49 1 2 25 -1 52 -6
27 -5 69 -12 94 -15 105 -14 129 -18 200 -32 41 -8 93 -24 115 -35 l40 -20
-25 21 c-76 62 -313 179 -432 214 -55 16 -85 36 -54 36 9 0 16 4 16 9 0 5 9
11 21 14 12 3 18 10 14 16 -4 7 5 11 22 11 37 0 197 -35 252 -54 54 -20 64
-20 28 0 -31 17 -210 74 -236 75 -10 0 -11 2 -4 6 7 2 47 -3 89 -11 43 -9 79
-15 80 -13 4 3 -38 16 -206 66 l-65 19 90 -3 c50 -2 110 -8 135 -14 81 -18
251 -81 342 -127 48 -24 88 -42 88 -40 0 15 -294 156 -325 156 -7 0 -50 31
-96 70 -46 38 -118 92 -160 119 l-77 49 -6 -36z m121 -578 c-3 -3 -12 -4 -19
-1 -8 3 -5 6 6 6 11 1 17 -2 13 -5z"/>
<path d="M4270 2297 c-120 -46 -114 -42 -106 -56 5 -7 35 3 84 27 42 21 93 46
112 55 62 28 18 16 -90 -26z"/>
<path d="M4163 2313 c-26 -5 -31 -31 -8 -40 16 -5 55 22 55 39 0 8 -8 8 -47 1z"/>
<path d="M4434 2250 c-37 -16 -191 -70 -200 -70 -2 0 -1 6 2 14 4 10 -3 13
-24 13 -19 -1 -28 -6 -25 -14 3 -7 8 -11 12 -9 3 2 7 -6 7 -17 1 -12 20 -61
42 -109 23 -47 47 -101 55 -120 28 -65 180 -393 185 -398 2 -3 2 138 -1 313
-3 175 -8 321 -11 325 -4 3 -26 1 -49 -5 -38 -11 -70 -7 -38 5 11 4 11 6 0 12
-9 6 3 16 37 32 27 12 51 24 53 25 1 1 1 6 0 11 -2 5 -22 1 -45 -8z"/>
<path d="M2802 2179 c-22 -61 -284 -818 -359 -1036 l-35 -103 -168 0 -168 0
-15 43 c-16 45 -125 358 -286 827 l-102 295 -270 -3 -269 -3 0 -129 0 -130
235 0 235 0 0 -135 0 -135 -235 0 -236 0 3 -135 3 -134 155 -5 c85 -2 206 -5
268 -5 l112 -1 0 -135 0 -135 -265 0 c-244 0 -266 -1 -272 -17 -4 -10 -26 -46
-50 -79 -24 -34 -43 -67 -43 -73 0 -6 39 15 88 47 112 75 110 74 116 63 3 -5
-28 -55 -69 -111 -68 -93 -84 -120 -71 -120 3 0 39 16 82 35 42 19 80 35 85
35 21 0 4 -31 -71 -135 -44 -60 -80 -114 -80 -119 0 -12 15 -5 145 73 66 39
125 71 132 71 18 0 16 -21 -7 -80 -11 -28 -18 -56 -14 -61 3 -6 -7 -46 -22
-89 -16 -43 -25 -82 -22 -86 15 -15 61 11 226 129 165 117 298 193 472 267 41
18 120 55 174 82 65 32 103 45 109 39 14 -14 36 -145 36 -218 1 -46 5 -63 14
-63 8 0 22 -9 32 -20 18 -20 18 -23 0 -108 -11 -50 -20 -137 -22 -204 -3 -113
-2 -116 18 -111 19 5 20 3 14 -33 -4 -22 -9 -48 -12 -59 -3 -13 6 -7 27 18 30
35 34 37 48 23 9 -9 19 -37 22 -63 l5 -48 54 57 c30 32 62 60 70 63 20 7 69
76 98 138 49 106 204 314 224 301 5 -3 9 -2 8 3 -3 20 2 22 19 6 11 -10 17
-22 14 -28 -3 -5 19 13 49 40 30 28 69 64 88 80 l35 30 -18 -28 c-10 -16 -15
-31 -12 -34 3 -3 24 3 48 12 24 10 63 21 88 26 25 4 62 10 83 14 50 10 49 -4
-10 -87 -27 -36 -60 -88 -75 -115 -15 -26 -42 -67 -59 -90 -18 -24 -30 -45
-28 -48 3 -3 45 22 92 55 144 99 216 127 204 79 l-5 -20 36 21 c35 20 36 20
14 1 -13 -11 -36 -30 -50 -41 -39 -30 -1 -11 98 50 116 73 278 160 295 160 8
0 15 4 15 8 0 5 19 17 43 27 23 11 48 23 56 29 16 12 47 18 35 7 -5 -5 -29
-20 -54 -33 -101 -56 -114 -65 -118 -78 -3 -8 13 -3 43 13 26 15 53 27 59 27
6 0 28 11 48 25 41 28 53 31 42 13 -5 -7 13 4 38 25 26 21 48 41 50 45 3 7 61
58 104 92 10 9 47 35 82 59 34 24 62 45 62 47 0 2 -43 97 -95 211 -53 115
-139 304 -193 421 l-97 212 -3 -430 -2 -431 -148 3 -147 3 -5 35 -5 35 -417 3
-418 2 -2 562 -3 561 -23 -64z m1278 -1333 c-7 -7 -14 -6 -21 1 -9 9 -7 12 9
10 14 -1 18 -5 12 -11z m-35 -14 c-3 -3 -11 0 -18 7 -9 10 -8 11 6 5 10 -3 15
-9 12 -12z m-483 -164 c-37 -35 -70 -67 -73 -72 -9 -11 -22 11 -14 24 9 14
136 110 146 110 4 0 -23 -28 -59 -62z m-554 5 c-6 -7 -14 -10 -19 -7 -15 9
-10 20 10 20 15 0 17 -3 9 -13z"/>
<path d="M3140 2070 l0 -130 240 0 240 0 0 -135 0 -135 -240 0 -241 0 3 -137
3 -138 260 0 260 0 0 400 0 400 -262 3 -263 2 0 -130z"/>
<path d="M4797 2163 c-4 -3 -7 -211 -7 -462 l0 -456 -82 -28 c-88 -31 -288
-122 -288 -131 0 -7 23 3 130 52 112 51 120 46 11 -8 -57 -27 -102 -53 -98
-56 3 -3 13 -1 24 5 88 51 301 121 368 121 38 -1 39 -1 20 -16 -17 -13 -18
-16 -5 -24 8 -5 11 -10 5 -11 -18 -2 49 -17 90 -19 l40 -2 -35 -8 c-42 -9
-252 -82 -248 -86 2 -1 28 3 58 10 78 18 181 29 155 16 -15 -8 -4 -9 43 -6 65
4 84 -7 31 -19 -17 -4 -28 -10 -24 -13 3 -4 -9 -12 -27 -19 -32 -12 -31 -13
22 -7 30 3 75 8 100 11 88 11 26 -14 -105 -42 -160 -35 -487 -143 -575 -192
-108 -59 -353 -246 -296 -226 14 5 17 3 11 -7 -5 -8 -4 -11 3 -6 6 4 8 14 5
23 -5 13 -2 15 11 10 25 -10 123 62 104 75 -9 7 -8 8 5 4 12 -4 51 14 110 48
51 29 117 66 147 80 41 20 47 25 25 22 -27 -5 -26 -3 10 14 22 10 46 19 53 19
6 1 12 6 12 11 0 6 8 10 18 10 11 0 32 6 48 14 43 22 192 63 249 70 l50 6 -42
-13 c-23 -6 -45 -16 -50 -21 -4 -5 -3 -7 2 -3 14 7 188 38 192 33 4 -3 -35
-14 -212 -60 -241 -63 -506 -189 -673 -319 -90 -70 -204 -177 -190 -177 6 0
70 49 109 83 36 31 41 26 7 -6 -21 -19 -38 -38 -38 -43 0 -4 5 -3 12 4 7 7 17
12 22 12 6 0 -12 -23 -39 -51 -53 -55 -46 -56 20 -4 72 57 264 181 230 148 -5
-5 -53 -39 -105 -76 -52 -36 -124 -93 -160 -127 -69 -66 -62 -62 74 41 99 75
179 121 308 179 120 54 124 50 8 -8 -52 -27 -113 -59 -135 -72 -52 -31 -170
-120 -160 -120 5 0 83 36 174 80 91 43 208 93 260 110 101 33 302 73 458 91
111 13 570 6 648 -10 117 -24 115 -24 115 3 0 14 -4 27 -9 30 -4 3 -11 27 -15
54 -3 26 -14 58 -23 71 l-16 24 94 -6 c52 -4 108 -3 124 1 28 8 26 9 -25 16
-135 17 -178 28 -182 44 -7 24 48 26 190 7 200 -28 229 -29 242 -6 5 11 10 29
10 41 0 12 14 35 31 52 l30 31 117 -6 c64 -4 140 -9 167 -12 28 -3 44 -2 38 1
-25 11 -14 31 15 26 25 -5 26 -4 12 14 -8 10 -19 22 -25 26 -24 18 29 6 96
-22 84 -34 79 -33 79 -22 0 4 -25 25 -55 47 -56 40 -64 50 -43 57 7 3 6 12 -6
30 -14 21 -15 31 -6 48 12 22 8 31 -28 68 -14 16 -22 12 -77 -41 -64 -61 -192
-111 -327 -128 -99 -13 -253 0 -330 27 -22 7 -44 11 -49 8 -5 -3 -9 0 -9 7 0
7 -3 9 -7 6 -3 -4 -12 -2 -20 5 -7 6 -16 8 -20 4 -3 -3 -1 -6 5 -6 7 0 12 -7
12 -15 0 -8 -5 -15 -11 -15 -5 0 -8 4 -4 9 3 6 -22 15 -55 22 -78 15 -78 32 0
27 67 -3 63 -9 74 102 14 134 18 165 21 169 2 2 33 -8 67 -22 94 -39 144 -50
233 -51 133 -2 211 41 222 121 10 78 -52 143 -175 184 -208 68 -308 170 -331
335 -9 64 -9 92 4 167 l5 27 -191 0 -191 0 2 -517 c1 -285 2 -528 1 -540 -1
-23 -2 -23 -156 -23 l-155 0 0 540 0 540 -173 0 c-96 0 -177 -3 -180 -7z m983
-947 c0 -16 -20 -44 -20 -28 0 7 -13 12 -32 12 -40 0 -71 16 -48 24 22 8 73
12 88 8 6 -2 12 -9 12 -16z m126 -151 c54 -20 76 -35 54 -36 -8 0 5 -9 30 -19
44 -20 44 -20 10 -15 -19 2 -71 7 -115 10 -129 10 -275 34 -296 48 -17 13 -14
14 34 18 28 2 80 3 115 3 34 0 62 4 62 8 0 11 50 3 106 -17z m-10 -156 c3 -5
-18 -8 -46 -8 -28 1 -53 5 -56 10 -3 5 18 8 46 8 28 -1 53 -5 56 -10z m62 -16
c-10 -2 -26 -2 -35 0 -10 3 -2 5 17 5 19 0 27 -2 18 -5z m-1518 -133 c0 -5 -5
-10 -11 -10 -5 0 -7 5 -4 10 3 6 8 10 11 10 2 0 4 -4 4 -10z m-100 -54 c0 -2
-7 -7 -16 -10 -8 -3 -12 -2 -9 4 6 10 25 14 25 6z m-160 -111 c-13 -14 -28
-25 -34 -25 -6 1 3 12 19 25 39 32 45 32 15 0z"/>
<path d="M6658 1620 c11 -33 20 -46 35 -47 23 -2 165 -71 216 -105 55 -36 27
-3 -42 49 -34 26 -75 60 -91 76 -16 15 -46 35 -67 44 -22 8 -39 18 -39 22 0 4
-6 8 -14 8 -11 0 -11 -8 2 -47z"/>
<path d="M6680 1521 c0 -21 -3 -58 -6 -82 l-6 -45 84 -12 c101 -14 108 -15
108 -3 0 11 -87 101 -142 148 l-38 31 0 -37z"/>
<path d="M550 1010 c-17 -33 -28 -60 -25 -60 2 0 18 27 35 60 17 33 28 60 25
60 -2 0 -18 -27 -35 -60z"/>
<path d="M4443 1021 c-120 -64 -262 -177 -344 -276 l-33 -40 35 31 c79 70 196
157 284 211 52 32 95 64 95 71 0 6 4 12 8 12 5 0 17 7 28 15 35 26 0 15 -73
-24z"/>
<path d="M331 1035 c1 -19 18 -51 18 -35 0 8 -4 22 -9 30 -5 8 -9 11 -9 5z"/>
<path d="M4510 981 c-114 -46 -186 -88 -292 -172 -80 -63 -273 -258 -264 -266
3 -3 50 36 106 86 55 51 105 89 110 86 5 -3 56 25 112 64 57 38 139 90 183
116 44 26 69 44 55 40 -40 -12 -13 10 65 49 96 49 50 47 -75 -3z m-220 -165
c0 -2 -8 -10 -17 -17 -16 -13 -17 -12 -4 4 13 16 21 21 21 13z"/>
<path d="M321 997 c-1 -10 -5 -15 -11 -12 -5 3 -10 -2 -10 -12 0 -15 -2 -16
-10 -3 -7 11 -10 6 -10 -21 0 -20 6 -42 14 -48 11 -9 16 -3 28 32 8 25 11 52
7 63 -7 18 -8 18 -8 1z"/>
<path d="M462 918 c-7 -7 -12 -17 -12 -23 0 -7 -11 -18 -24 -25 -19 -9 -24
-20 -23 -41 2 -33 6 -31 47 44 32 57 35 68 12 45z"/>
<path d="M480 859 c-7 -11 -10 -23 -7 -25 2 -2 9 7 15 21 14 30 7 33 -8 4z"/>
<path d="M4400 819 c-41 -23 -93 -53 -115 -68 -58 -37 -174 -134 -174 -145 -1
-6 11 1 27 15 68 62 170 132 267 184 73 39 96 55 80 55 -6 0 -44 -19 -85 -41z"/>
<path d="M6043 803 c9 -2 25 -2 35 0 9 3 1 5 -18 5 -19 0 -27 -2 -17 -5z"/>
<path d="M3996 771 c-4 -6 -5 -15 -1 -20 3 -5 1 -12 -5 -16 -5 -3 -10 -11 -10
-17 0 -6 10 1 21 16 15 19 18 31 11 38 -6 6 -12 6 -16 -1z"/>
<path d="M3775 689 c-16 -10 -23 -19 -15 -19 8 0 26 9 40 20 32 25 14 25 -25
-1z"/>
<path d="M4129 680 c-19 -16 -30 -30 -26 -30 4 0 22 13 40 30 42 39 30 39 -14
0z"/>
<path d="M3842 625 c-139 -72 -353 -197 -347 -204 3 -2 16 4 29 13 34 22 43
20 21 -4 -10 -11 -13 -20 -7 -20 7 0 12 4 12 9 0 15 240 133 256 127 10 -4 12
-2 8 6 -5 8 -2 9 10 5 10 -4 26 -2 37 3 10 6 19 7 19 3 0 -5 -54 -35 -120 -68
-165 -82 -153 -84 25 -4 11 4 27 10 35 11 30 6 75 35 75 50 0 8 8 22 17 31 24
25 60 86 56 97 -2 5 -58 -20 -126 -55z m-257 -165 c-3 -5 -12 -10 -18 -10 -7
0 -6 4 3 10 19 12 23 12 15 0z"/>
</g>
</svg>
