<?xml version="1.0" encoding="UTF-8"?>
<svg version="1.1" xmlns="http://www.w3.org/2000/svg" width="500" height="268">
<path d="M0 0 C1.06112 0.08421707 2.12223999 0.16843414 3.21551514 0.25520325 C4.41726379 0.34577499 5.61901245 0.43634674 6.85717773 0.52966309 C8.81491119 0.69508354 8.81491119 0.69508354 10.81219482 0.86384583 C12.16255123 0.97219876 13.51295497 1.0799634 14.86340332 1.18716431 C17.69869364 1.41481476 20.53318531 1.65042803 23.36737061 1.89143372 C26.98864695 2.19861862 30.61121202 2.48496573 34.23466873 2.76510143 C37.0270737 2.98354488 39.81841256 3.21378975 42.60958099 3.44745827 C44.59088335 3.61105402 46.5730318 3.76429682 48.55517578 3.9173584 C49.76953308 4.02369095 50.98389038 4.1300235 52.23504639 4.23957825 C53.29934875 4.32777328 54.36365112 4.41596832 55.46020508 4.50683594 C59.99796365 5.35326351 63.40040183 6.97547261 66.64813232 10.25837708 C68.8934794 13.6980577 70.40008731 17.25357209 71.85906982 21.07087708 C72.19156738 21.92061096 72.52406494 22.77034485 72.86663818 23.64582825 C76.93371438 34.10312617 80.8732774 44.61144547 84.82806396 55.11164856 C88.08322472 63.75088515 91.36301712 72.3798073 94.68719482 80.99275208 C95.20472572 82.33414497 95.20472572 82.33414497 95.73271179 83.70263672 C97.40949191 88.04653246 99.08960428 92.38911093 100.77337646 96.7303009 C101.38142946 98.30343796 101.98942408 99.87659757 102.59735107 101.44978333 C102.875849 102.16474976 103.15434692 102.87971619 103.44128418 103.61634827 C104.64451502 106.73522804 105.79670247 109.79367337 106.48406982 113.07087708 C108.93631676 112.96473871 108.93631676 112.96473871 111.48406982 112.07087708 C112.19477892 110.42250976 112.85176123 108.75087947 113.48406982 107.07087708 C114.69834566 104.94589436 115.95405288 102.84441973 117.23406982 100.75837708 C121.95924203 92.99608689 126.53232821 85.14936276 131.0914917 77.28865051 C134.00799198 72.27245962 136.9506827 67.27761252 139.98016357 62.32868958 C140.52890137 61.42981018 141.07763916 60.53093079 141.64300537 59.60481262 C142.67249495 57.92480315 143.70869065 56.24887694 144.75286865 54.57795715 C149.54515513 46.74869359 151.4330311 40.14706169 149.48406982 31.07087708 C147.32025016 24.63547559 143.74533 20.19722018 137.54266357 17.10212708 C135.87725698 16.3754042 134.18262722 15.71632888 132.48406982 15.07087708 C132.81406982 14.08087708 133.14406982 13.09087708 133.48406982 12.07087708 C155.50343248 13.51396273 177.49348412 15.24609911 199.48406982 17.07087708 C199.81406982 18.06087708 200.14406982 19.05087708 200.48406982 20.07087708 C199.57656982 20.31837708 198.66906982 20.56587708 197.73406982 20.82087708 C196.31735805 21.23739034 194.90069812 21.65407997 193.48406982 22.07087708 C192.62297607 22.30419739 191.76188232 22.5375177 190.87469482 22.77790833 C171.12102521 28.62392676 156.67293131 41.40282725 146.48406982 59.07087708 C146.03982666 59.83835266 145.5955835 60.60582825 145.13787842 61.39656067 C142.62177468 65.75809488 140.13155029 70.13376958 137.65203857 74.51618958 C134.52019853 80.03497862 131.29201585 85.493352 128.04656982 90.94587708 C123.50869193 98.5786912 119.08358478 106.26672359 114.73406982 114.00837708 C110.6042834 121.35466675 106.40518406 128.63841014 102.03485107 135.84431458 C98.94847728 140.93867528 95.9247345 146.07012174 92.89312744 151.19718933 C86.51109655 161.989798 80.09087516 172.75826686 73.62030029 183.49812317 C71.90268424 186.35243247 70.19212528 189.21083769 68.48406982 192.07087708 C67.85637695 193.11542053 67.22868408 194.15996399 66.58197021 195.23616028 C65.96185059 196.27989807 65.34173096 197.32363586 64.70281982 198.39900208 C64.14401123 199.33518372 63.58520264 200.27136536 63.00946045 201.23591614 C56.8036048 212.76959023 55.40816657 225.75455431 58.92156982 238.38337708 C62.08824546 246.68610965 68.50058154 253.76892012 76.23016357 258.17243958 C80.7742026 259.98375496 85.61648407 260.75635615 90.48406982 261.07087708 C91.14406982 260.74087708 91.80406982 260.41087708 92.48406982 260.07087708 C93.55768759 251.94205688 90.0042534 247.57955343 85.48406982 241.07087708 C81.31773729 234.27901546 79.66172109 229.04653334 80.48406982 221.07087708 C83.18622083 211.38233566 87.54940352 206.31997561 96.14422607 201.30525208 C102.7912435 197.79864522 111.24580003 197.84851894 118.38250732 199.90681458 C126.55477929 203.65348695 131.64604981 209.31332799 134.92156982 217.63337708 C137.48837449 225.68783308 136.73606126 232.34451445 133.48406982 240.07087708 C127.01972909 251.52883553 117.73826811 259.47594985 105.01531982 263.04353333 C92.7134534 265.86928256 81.80508893 266.26358572 70.68328857 259.60603333 C61.4628176 253.16971878 56.62844829 244.72162287 53.48406982 234.07087708 C50.88330829 217.9187791 55.44632686 205.31252122 64.20281982 191.85212708 C64.9055603 190.74357361 64.9055603 190.74357361 65.62249756 189.61262512 C66.55293723 188.15611139 67.51001889 186.71618839 68.49603271 185.29670715 C70.98065849 181.39189664 71.64280508 179.83848089 70.67547607 175.16072083 C69.96023313 173.45763153 69.22682691 171.76214806 68.48406982 170.07087708 C67.75755518 168.12872304 67.03210377 166.18613606 66.31959534 164.23880005 C64.85933229 160.25624201 63.35416636 156.29045903 61.85906982 152.32087708 C61.19425176 150.55203615 60.52954063 148.78315503 59.8649292 147.01423645 C54.21215446 131.97638687 48.53174845 116.94893961 42.84759521 101.92292786 C39.31199296 92.57406072 35.78648128 83.22159 32.28485107 73.85993958 C31.94634125 72.95527954 31.60783142 72.05061951 31.25906372 71.11854553 C29.66372751 66.85418653 28.07030916 62.58912741 26.48016357 58.3228302 C23.32194774 49.86643904 20.07370877 41.46027955 16.65472412 33.10554504 C15.74489985 30.74702249 15.0049905 28.53623945 14.48406982 26.07087708 C11.82200178 28.54397116 9.82490688 31.29357013 7.73406982 34.25837708 C-3.00606847 49.09185301 -16.6464691 58.73099234 -31.51593018 69.07087708 C-41.70455667 76.17687153 -51.75638671 83.38392483 -61.51593018 91.07087708 C-62.35124268 91.7231427 -63.18655518 92.37540833 -64.04718018 93.04743958 C-74.07906477 100.96220567 -83.81093087 109.19886904 -92.89093018 118.19587708 C-93.45658691 118.75234924 -94.02224365 119.30882141 -94.6050415 119.88215637 C-97.56846857 122.48822521 -97.56846857 122.48822521 -98.51593018 126.07087708 C-97.70768799 125.75118958 -96.8994458 125.43150208 -96.06671143 125.10212708 C-73.05921165 118.42008094 -46.25634685 130.31499868 -24.51593018 137.07087708 C-15.60008364 139.83819993 -3.51297794 143.00331779 5.32000732 138.68415833 C7.54911598 137.02238599 8.8652937 135.30632982 10.48406982 133.07087708 C11.14406982 133.07087708 11.80406982 133.07087708 12.48406982 133.07087708 C13.63979028 147.80631285 5.84650478 162.82504145 -3.44561768 173.81306458 C-10.69699499 181.7211704 -17.55012506 186.41623798 -28.47052002 187.09944153 C-42.03052418 186.97225534 -55.33116228 181.78936905 -68.01593018 177.50837708 C-70.67833699 176.61889116 -73.34170555 175.73241177 -76.00604248 174.84872437 C-77.6457837 174.30394581 -79.28431193 173.75549604 -80.92132568 173.20257568 C-88.46507976 170.67884022 -95.63954153 168.71129401 -103.64093018 168.69587708 C-104.31768799 168.67138489 -104.9944458 168.6468927 -105.69171143 168.62165833 C-110.78283847 168.592116 -113.58012328 169.9292913 -117.51593018 173.07087708 C-118.35124268 173.93712708 -118.35124268 173.93712708 -119.20343018 174.82087708 C-120.51593018 176.07087708 -120.51593018 176.07087708 -123.51593018 176.07087708 C-124.5208987 173.05597151 -124.6192832 171.02906016 -124.57843018 167.88337708 C-124.56940674 166.98232239 -124.5603833 166.0812677 -124.55108643 165.15290833 C-124.53368408 164.12230286 -124.53368408 164.12230286 -124.51593018 163.07087708 C-125.28034424 163.71154114 -126.0447583 164.3522052 -126.83233643 165.01228333 C-142.46736178 177.77107735 -160.866188 185.6235391 -181.39825439 183.62385559 C-203.08446288 181.08632704 -222.46805687 171.39391715 -236.5178833 154.52986145 C-252.54423462 134.18968786 -260.88049541 108.0389682 -257.81378174 82.15193176 C-254.90290357 61.81396003 -246.91132874 43.87904692 -232.51593018 29.07087708 C-231.9410083 28.4340802 -231.36608643 27.79728333 -230.77374268 27.14118958 C-220.56643038 16.15245625 -204.43488385 8.19780178 -189.47930908 6.7837677 C-186.34013187 6.67046512 -183.21932376 6.66104277 -180.07843018 6.69587708 C-179.03622314 6.68427551 -177.99401611 6.67267395 -176.92022705 6.66072083 C-159.39795608 6.72589976 -144.42320792 13.39495802 -131.51593018 25.07087708 C-130.76956299 25.72443176 -130.0231958 26.37798645 -129.25421143 27.05134583 C-123.19500412 32.68757182 -118.89761003 39.17231468 -114.48468018 46.10603333 C-113.83499268 47.08443176 -113.18530518 48.0628302 -112.51593018 49.07087708 C-112.18593018 49.07087708 -111.85593018 49.07087708 -111.51593018 49.07087708 C-111.50134766 47.94592834 -111.48676514 46.82097961 -111.47174072 45.66194153 C-111.41365263 41.4777032 -111.33642054 37.29399711 -111.253479 33.11018372 C-111.22027904 31.30135249 -111.19223177 29.4924189 -111.16949463 27.6834259 C-111.1358576 25.07906075 -111.08353823 22.47562947 -111.02764893 19.87165833 C-111.021259 19.06626114 -111.01486908 18.26086395 -111.00828552 17.43106079 C-110.88959796 12.8715682 -110.53887881 9.72187045 -107.51593018 6.07087708 C-104.7633323 4.42917967 -102.6108363 3.80236508 -99.42404175 3.66546631 C-98.23826066 3.60926416 -98.23826066 3.60926416 -97.0285244 3.55192661 C-96.18212709 3.52200595 -95.33572979 3.49208529 -94.46368408 3.46125793 C-93.57617273 3.42380683 -92.68866138 3.38635572 -91.77425575 3.34776974 C-83.46213403 3.01928657 -75.14985159 2.89368561 -66.83198166 2.84108162 C-64.26739106 2.82422818 -61.70292249 2.80100798 -59.13839722 2.77618408 C-51.86586815 2.70646407 -44.5933054 2.64469572 -37.32061768 2.59407043 C-32.83007266 2.56237552 -28.33969917 2.52118383 -23.84929276 2.47387505 C-22.14841365 2.4578679 -20.44749578 2.44554038 -18.74656296 2.43696785 C-16.39004518 2.42487952 -14.03393938 2.40077638 -11.67755127 2.37385559 C-10.97745438 2.37326645 -10.27735748 2.37267731 -9.55604553 2.37207031 C-5.43791059 2.30939634 -3.6441264 0.10265985 0 0 Z M-197.20343018 16.82087708 C-199.79755913 20.46667993 -201.313351 23.81089321 -202.51593018 28.07087708 C-202.93552002 29.45339661 -202.93552002 29.45339661 -203.36358643 30.86384583 C-205.71292208 40.18469843 -205.78455715 49.40186187 -205.76593018 58.94587708 C-205.76515472 59.63328979 -205.76437927 60.32070251 -205.76358032 61.02894592 C-206.42531653 68.00894057 -206.42531653 68.00894057 -204.51593018 74.07087708 C-187.70754761 74.94056453 -171.17671989 73.13653665 -154.51593018 71.07087708 C-155.01889599 63.81639597 -155.98397955 56.88608563 -157.70343018 49.82087708 C-158.03226196 48.46397766 -158.03226196 48.46397766 -158.36773682 47.07966614 C-161.48639892 34.70141471 -165.46015613 19.71542675 -176.39093018 12.00837708 C-184.70170955 7.44062047 -190.88200144 10.35243837 -197.20343018 16.82087708 Z M-60.88311768 53.10896301 C-65.41690751 53.14443979 -69.94986806 53.2045041 -74.4831543 53.28041077 C-76.24629113 53.30725563 -78.00953917 53.32762516 -79.77282715 53.34132385 C-82.2634188 53.36263013 -84.7523868 53.40905572 -87.24249268 53.46150208 C-88.34373474 53.46336014 -88.34373474 53.46336014 -89.46722412 53.46525574 C-95.81663796 53.6453294 -99.4647115 55.76234854 -104.44171143 59.52790833 C-105.93235327 61.66901207 -105.81552434 63.18021141 -105.70343018 65.75837708 C-105.67635986 66.56661926 -105.64928955 67.37486145 -105.62139893 68.20759583 C-105.56919189 69.12992004 -105.56919189 69.12992004 -105.51593018 70.07087708 C-106.40925049 70.10825989 -107.3025708 70.1456427 -108.22296143 70.18415833 C-123.46700596 70.8971705 -138.65847654 72.30999295 -153.85626221 73.65925598 C-157.72159744 74.0019437 -161.58760347 74.33625429 -165.4539032 74.66786194 C-168.43100804 74.92411917 -171.40770031 75.18495022 -174.38430786 75.44691467 C-175.78351604 75.56930958 -177.18286655 75.69009026 -178.58236694 75.80909729 C-192.48695522 75.97735492 -192.48695522 75.97735492 -204.51593018 81.07087708 C-205.83939375 100.37987121 -194.99996355 121.77747291 -183.01202393 136.23103333 C-173.9890052 146.49665869 -162.90391601 153.92130122 -149.03936768 155.32087708 C-137.76964909 155.84051828 -127.83937402 152.31427529 -119.00030518 145.39118958 C-114.77495998 141.44487661 -111.73051719 136.84576071 -108.51593018 132.07087708 C-99.30013007 119.21086779 -88.65649738 108.03882535 -76.22686768 98.21540833 C-73.26797041 95.87472447 -70.3946766 93.4468011 -67.51593018 91.00837708 C-62.02112232 86.42819793 -56.36025142 82.19196684 -50.51593018 78.07087708 C-49.15524331 77.10995343 -47.79456698 76.14901487 -46.43389893 75.18806458 C-45.71105713 74.67807922 -44.98821533 74.16809387 -44.24346924 73.64265442 C-42.76462965 72.59916809 -41.28611115 71.55522653 -39.80792236 70.51081848 C-39.09152588 70.00470032 -38.37512939 69.49858215 -37.63702393 68.97712708 C-36.93819092 68.48341614 -36.23935791 67.9897052 -35.51934814 67.48103333 C-33.70157387 66.20154707 -31.87737369 64.93191256 -30.05108643 63.66462708 C-29.07010986 62.97368958 -28.0891333 62.28275208 -27.07843018 61.57087708 C-25.81192627 60.68915833 -25.81192627 60.68915833 -24.51983643 59.78962708 C-22.44180829 58.00730274 -21.52689903 56.59001259 -20.51593018 54.07087708 C-23.26106317 52.69831058 -25.45022521 52.9411669 -28.52374268 52.93806458 C-29.80200928 52.93580872 -31.08027588 52.93355286 -32.39727783 52.93122864 C-33.81183125 52.93527576 -35.22638243 52.94018279 -36.64093018 52.94587708 C-37.35513123 52.94809265 -38.06933228 52.95030823 -38.80517578 52.95259094 C-43.51946632 52.96952961 -48.23345533 53.0045796 -52.9475708 53.04804993 C-55.59273676 53.07155972 -58.23791384 53.0902492 -60.88311768 53.10896301 Z " fill="#8A5BFB" transform="translate(287.51593017578125,0.9291229248046875)"/>
<path d="M0 0 C22.01936266 1.44308566 44.0094143 3.17522204 66 5 C66.495 6.485 66.495 6.485 67 8 C66.0925 8.2475 65.185 8.495 64.25 8.75 C62.83328822 9.16651326 61.4166283 9.5832029 60 10 C59.13890625 10.23332031 58.2778125 10.46664063 57.390625 10.70703125 C37.63695539 16.55304969 23.18886149 29.33195018 13 47 C12.55575684 47.76747559 12.11151367 48.53495117 11.65380859 49.32568359 C9.1473172 53.67055529 6.66608926 58.02927046 4.1953125 62.39453125 C0.90222559 68.19678277 -2.47573293 73.946951 -5.875 79.6875 C-6.39803711 80.57115234 -6.92107422 81.45480469 -7.45996094 82.36523438 C-10.95287545 88.25577089 -14.47140171 94.13078055 -18 100 C-18.66 99.01 -19.32 98.02 -20 97 C-18.95748022 93.48064285 -17.19544627 90.43324987 -15.33984375 87.28125 C-14.80141846 86.36263184 -14.26299316 85.44401367 -13.70825195 84.49755859 C-13.12390381 83.50836426 -12.53955566 82.51916992 -11.9375 81.5 C-11.33059326 80.46568848 -10.72368652 79.43137695 -10.09838867 78.36572266 C-8.42880687 75.52134361 -6.75630657 72.67872423 -5.08215332 69.83703613 C-2.03220108 64.65951427 1.01349052 59.47949253 4.05685425 54.2980957 C5.16965573 52.40535102 6.28502467 50.51413711 7.40063477 48.62304688 C8.09400503 47.44406467 8.78728723 46.26503068 9.48046875 45.0859375 C10.08785889 44.0551709 10.69524902 43.0244043 11.32104492 41.96240234 C15.86744588 33.94058626 18.23928012 27.33027757 15.83984375 18.234375 C13.41885294 11.79341341 9.72860228 8.07773713 3.625 5 C2.09237374 4.31280475 0.5535048 3.63859486 -1 3 C-0.67 2.01 -0.34 1.02 0 0 Z " fill="#895CF6" transform="translate(421,13)"/>
<path d="M0 0 C0.66 0 1.32 0 2 0 C3.57554035 2.88628401 4.46276373 5.53342384 5.125 8.75 C5.29257812 9.54921875 5.46015625 10.3484375 5.6328125 11.171875 C5.75398438 11.77515625 5.87515625 12.3784375 6 13 C6.66 13 7.32 13 8 13 C6.49784189 18.35038339 3.99344551 22.67509802 1.125 27.375 C-7.41600959 41.46639862 -12.42411724 53.31756647 -9.41796875 70.28515625 C-6.66977865 80.01048652 -0.06584177 88.08932988 8.75 93.1015625 C14.10081647 95.23817325 20.45430286 96.84856571 26 95 C25.505 96.485 25.505 96.485 25 98 C25.99 98.99 25.99 98.99 27 100 C15.09499929 100.43290912 5.6032338 97.5345464 -3.25 89.3125 C-12.19183316 79.88973159 -15.08129237 67.68161016 -15 55 C-13.68554859 44.58748292 -8.94175948 35.48252904 -3.28125 26.78125 C-2.81275635 26.04221436 -2.3442627 25.30317871 -1.86157227 24.54174805 C-0.9311326 23.08523431 0.02594907 21.64531132 1.01196289 20.22583008 C3.56569038 16.21324952 3.56569038 16.21324952 3.62915039 11.58569336 C2.86951959 9.31872393 1.97149237 7.18248646 1 5 C0.62770641 3.34160126 0.2706431 1.67798725 0 0 Z " fill="#7E61DA" transform="translate(355,166)"/>
<path d="M0 0 C0.99 0.495 0.99 0.495 2 1 C1.39773592 4.52728159 1.10069311 4.92078809 -1.9296875 7.3046875 C-3.23825567 8.17140809 -4.55394371 9.02743554 -5.875 9.875 C-7.33657395 10.84604685 -8.79612331 11.82014613 -10.25390625 12.796875 C-11.41237061 13.5712793 -11.41237061 13.5712793 -12.59423828 14.36132812 C-23.80327679 21.99630544 -34.6611682 30.22489753 -45 39 C-46.10519875 39.91959542 -47.21068515 40.83884521 -48.31640625 41.7578125 C-54.53236588 46.9628513 -60.51175974 52.33232133 -66.25 58.0625 C-66.79897949 58.61067383 -67.34795898 59.15884766 -67.91357422 59.72363281 C-70.21235126 62.05521828 -72.17789303 64.26683954 -74 67 C-74.99 67 -75.98 67 -77 67 C-77.391875 67.928125 -77.78375 68.85625 -78.1875 69.8125 C-80.12822616 73.22550118 -81.53018941 74.31198404 -85 76 C-78.07484322 60.64740376 -62.6323165 47.32104427 -49.67578125 37.109375 C-46.72562147 34.7837016 -43.86613545 32.36580474 -41 29.9375 C-35.50511108 25.35725328 -29.84373836 21.12198774 -24 17 C-22.59239578 16.00397993 -21.18484784 15.00788032 -19.77734375 14.01171875 C-16.85920917 11.94834039 -13.93846833 9.88873286 -11.015625 7.83203125 C-7.33163998 5.23811426 -3.66340952 2.62288613 0 0 Z " fill="#8365E1" transform="translate(261,61)"/>
<path d="M0 0 C1.35554714 4.06664141 0.82342402 7.23134611 -0.97705078 11.09863281 C-1.37907715 11.79311523 -1.78110352 12.48759766 -2.1953125 13.203125 C-2.88717651 14.40787476 -2.88717651 14.40787476 -3.59301758 15.63696289 C-4.09857178 16.49926514 -4.60412598 17.36156738 -5.125 18.25 C-5.913302 19.61209595 -5.913302 19.61209595 -6.7175293 21.00170898 C-12.19624742 30.42695459 -17.82096983 39.76594229 -23.45703125 49.09765625 C-27.0331639 55.02931345 -30.52607815 61.00803207 -34 67 C-34.66 66.01 -35.32 65.02 -36 64 C-34.95748022 60.48064285 -33.19544627 57.43324987 -31.33984375 54.28125 C-30.80141846 53.36263184 -30.26299316 52.44401367 -29.70825195 51.49755859 C-29.12390381 50.50836426 -28.53955566 49.51916992 -27.9375 48.5 C-27.33059326 47.46568848 -26.72368652 46.43137695 -26.09838867 45.36572266 C-24.42880687 42.52134361 -22.75630657 39.67872423 -21.08215332 36.83703613 C-18.03220108 31.65951427 -14.98650948 26.47949253 -11.94314575 21.2980957 C-10.83034427 19.40535102 -9.71497533 17.51413711 -8.59936523 15.62304688 C-7.90599497 14.44406467 -7.21271277 13.26503068 -6.51953125 12.0859375 C-5.91214111 11.0551709 -5.30475098 10.0244043 -4.67895508 8.96240234 C-3.01187448 6.02095172 -1.48410656 3.03728084 0 0 Z " fill="#8363DB" transform="translate(437,46)"/>
<path d="M0 0 C0.66 0 1.32 0 2 0 C2 1.98 2 3.96 2 6 C8.27 6 14.54 6 21 6 C21 6.33 21 6.66 21 7 C20.41549072 7.04487549 19.83098145 7.08975098 19.22875977 7.13598633 C5.64390895 8.18560003 -7.93073725 9.32920728 -21.5 10.5625 C-22.20655731 10.62643951 -22.91311462 10.69037903 -23.64108276 10.7562561 C-31.10262241 11.43268427 -38.5575226 12.13555296 -46 13 C-45.01 12.01 -44.02 11.02 -43 10 C-45.97 9.67 -48.94 9.34 -52 9 C-52 7.35 -52 5.7 -52 4 C-51.01 5.485 -51.01 5.485 -50 7 C-47.97643689 7.4486102 -47.97643689 7.4486102 -45.625 7.36328125 C-44.73071289 7.36392578 -43.83642578 7.36457031 -42.91503906 7.36523438 C-41.95307617 7.34783203 -40.99111328 7.33042969 -40 7.3125 C-39.01483398 7.30412109 -38.02966797 7.29574219 -37.01464844 7.28710938 C-29.956265 7.17337455 -23.02633138 6.60924201 -16.02783203 5.71655273 C-10.62406883 5.02822656 -5.43936992 4.82453645 0 5 C0 3.35 0 1.7 0 0 Z " fill="#8461E1" transform="translate(133,67)"/>
<path d="M0 0 C1.10085937 0.00515625 2.20171875 0.0103125 3.3359375 0.015625 C8.08022842 0.06168608 12.48337657 0.19886767 17.125 1.25 C16.465 1.58 15.805 1.91 15.125 2.25 C14.795 2.91 14.465 3.57 14.125 4.25 C13.34125 4.064375 12.5575 3.87875 11.75 3.6875 C9.15410225 2.99037734 9.15410225 2.99037734 7.125 4.25 C7.41375 4.806875 7.7025 5.36375 8 5.9375 C9.1663253 8.33494645 10.1589881 10.76596939 11.125 13.25 C10.444375 12.5075 9.76375 11.765 9.0625 11 C5.01014633 7.00456141 0.88514294 4.07224551 -4.9375 3.75 C-11.67470162 4.60551767 -15.34313569 8.45155544 -19.875 13.25 C-19.545 11.6 -19.215 9.95 -18.875 8.25 C-19.535 7.92 -20.195 7.59 -20.875 7.25 C-20.875 6.26 -20.875 5.27 -20.875 4.25 C-22.855 4.58 -24.835 4.91 -26.875 5.25 C-18.8372005 -0.108533 -9.35682203 -0.17907793 0 0 Z " fill="#8761E6" transform="translate(107.875,7.75)"/>
<path d="M0 0 C0.66426498 -0.00043808 1.32852997 -0.00087616 2.01292419 -0.00132751 C4.18283711 0.00074289 6.35195258 0.02398888 8.52172852 0.04760742 C10.03629637 0.05320965 11.55086969 0.05747678 13.06544495 0.06047058 C17.03245314 0.07187016 20.99912657 0.10129446 24.96600342 0.13458252 C29.02164178 0.16538947 33.07733475 0.17899852 37.13305664 0.1940918 C45.07656884 0.22616953 53.01981004 0.2773058 60.96313477 0.34057617 C60.96313477 0.67057617 60.96313477 1.00057617 60.96313477 1.34057617 C60.12676987 1.35674988 59.29040497 1.37292358 58.42869568 1.3895874 C50.52779466 1.545788 42.62756103 1.7204584 34.72752285 1.91563034 C30.66646802 2.01531438 26.6055111 2.10797287 22.54394531 2.18432617 C18.62065721 2.25834282 14.69821349 2.35113971 10.77565193 2.45670319 C9.28277536 2.49362763 7.78971833 2.52390357 6.29656792 2.5472641 C-3.0469382 2.69861579 -9.37274072 3.03523046 -16.47436523 9.59057617 C-16.98999023 10.16807617 -17.50561523 10.74557617 -18.03686523 11.34057617 C-18.36686523 10.02057617 -18.69686523 8.70057617 -19.03686523 7.34057617 C-13.08726111 2.11213618 -7.86203775 -0.043922 0 0 Z " fill="#9061E2" transform="translate(199.036865234375,52.659423828125)"/>
<path d="M0 0 C0.99 0.33 1.98 0.66 3 1 C2.07457755 5.27262045 0.03981676 8.74451546 -2.125 12.5 C-2.72526001 13.55380859 -2.72526001 13.55380859 -3.33764648 14.62890625 C-6.84802764 20.77782742 -10.40657753 26.89926989 -14 33 C-14.66 32.34 -15.32 31.68 -16 31 C-15.319375 29.88625 -15.319375 29.88625 -14.625 28.75 C-13.0379134 26.15014196 -13.0379134 26.15014196 -12 23.9375 C-11 22 -11 22 -9.4375 19.9375 C-7.81311272 17.95818504 -7.81311272 17.95818504 -7 15 C-6.34 15 -5.68 15 -5 15 C-4.67 12.69 -4.34 10.38 -4 8 C-4.99 8.33 -5.98 8.66 -7 9 C-7.33 8.34 -7.66 7.68 -8 7 C-7.34 7 -6.68 7 -6 7 C-5.67 6.01 -5.34 5.02 -5 4 C-3.66666667 3.66666667 -2.33333333 3.33333333 -1 3 C-0.67 2.01 -0.34 1.02 0 0 Z " fill="#855CEB" transform="translate(400,110)"/>
<path d="M0 0 C2.97 0.495 2.97 0.495 6 1 C1.77117161 6.83286675 -3.67465725 11.52153283 -10 15 C-12.33984375 14.72265625 -12.33984375 14.72265625 -14 14 C-12.69791667 12.53515625 -11.39583333 11.0703125 -10.09375 9.60546875 C-8.71848759 7.910552 -8.71848759 7.910552 -9 5 C-5.88228073 3.39660152 -4.60988311 2.81025859 -1.1875 3.875 C-0.465625 4.24625 0.25625 4.6175 1 5 C0.67 3.35 0.34 1.7 0 0 Z " fill="#885EEC" transform="translate(275,49)"/>
<path d="M0 0 C2 3 2 3 1.64477539 4.91699219 C1.43199951 5.60438477 1.21922363 6.29177734 1 7 C0.85966422 8.439735 0.75583143 9.88337149 0.68359375 11.328125 C0.64169922 12.12734375 0.59980469 12.9265625 0.55664062 13.75 C0.49766602 14.9875 0.49766602 14.9875 0.4375 16.25 C0.39431641 17.09046875 0.35113281 17.9309375 0.30664062 18.796875 C0.20091457 20.86440671 0.09998705 22.93218281 0 25 C-0.99 24.67 -1.98 24.34 -3 24 C-4.734375 7.1015625 -4.734375 7.1015625 0 0 Z " fill="#8269E5" transform="translate(344,211)"/>
<path d="M0 0 C0.66 0.33 1.32 0.66 2 1 C1.34 1.66 0.68 2.32 0 3 C0 3.99 0 4.98 0 6 C-2.1875 8.26171875 -2.1875 8.26171875 -5 10.6875 C-6.3921875 11.89986328 -6.3921875 11.89986328 -7.8125 13.13671875 C-8.534375 13.75160156 -9.25625 14.36648437 -10 15 C-10.33 14.34 -10.66 13.68 -11 13 C-12.65 14.32 -14.3 15.64 -16 17 C-16.66 16.67 -17.32 16.34 -18 16 C-12.07341663 10.57712263 -6.13842918 5.18356242 0 0 Z " fill="#876ADB" transform="translate(217,93)"/>
<path d="M0 0 C1.37478516 0.01740234 1.37478516 0.01740234 2.77734375 0.03515625 C3.69644531 0.04417969 4.61554688 0.05320312 5.5625 0.0625 C6.27277344 0.07410156 6.98304687 0.08570312 7.71484375 0.09765625 C5.46434379 1.85766263 3.62920643 3.1326897 0.96484375 4.22265625 C-1.49888979 5.85076757 -1.49888979 5.85076757 -1.6015625 8.2890625 C-1.5979795 10.57860155 -1.50013949 12.81883386 -1.28515625 15.09765625 C-1.61515625 14.43765625 -1.94515625 13.77765625 -2.28515625 13.09765625 C-3.27515625 12.76765625 -4.26515625 12.43765625 -5.28515625 12.09765625 C-5.36742293 9.05378901 -5.26123842 7.02590277 -4.28515625 4.09765625 C-3.62515625 4.09765625 -2.96515625 4.09765625 -2.28515625 4.09765625 C-2.61515625 3.10765625 -2.94515625 2.11765625 -3.28515625 1.09765625 C-2.28515625 0.09765625 -2.28515625 0.09765625 0 0 Z " fill="#815CF4" transform="translate(85.28515625,75.90234375)"/>
<path d="M0 0 C0 4.41049653 -1.28527842 6.24664482 -4.3125 9.4375 C-6.09379523 11.13594429 -7.88540924 12.8236365 -9.6875 14.5 C-11.97217828 16.96992246 -13.00099201 18.82133822 -14 22 C-14.99 22 -15.98 22 -17 22 C-13.77174258 13.05177191 -6.76564013 6.44932449 0 0 Z " fill="#8663E1" transform="translate(59,26)"/>
<path d="M0 0 C0.99 0.495 0.99 0.495 2 1 C2 1.99 2 2.98 2 4 C2.66 4 3.32 4 4 4 C4.33 5.65 4.66 7.3 5 9 C5.66 8.67 6.32 8.34 7 8 C7.33 8.66 7.66 9.32 8 10 C8.66 10.33 9.32 10.66 10 11 C10 15.21010206 9.33067486 19.00797543 8 23 C6.66128359 19.54372619 5.32994608 16.08465703 4 12.625 C3.6184375 11.64015625 3.236875 10.6553125 2.84375 9.640625 C2.30234375 8.22910156 2.30234375 8.22910156 1.75 6.7890625 C1.41484375 5.91975098 1.0796875 5.05043945 0.734375 4.15478516 C0 2 0 2 0 0 Z " fill="#8662E6" transform="translate(333,108)"/>
<path d="M0 0 C0.99 0.66 1.98 1.32 3 2 C4.32567199 2.68177416 5.65753688 3.35191436 7 4 C5.88266271 5.50571657 4.75589965 7.00444292 3.625 8.5 C2.99851562 9.3353125 2.37203125 10.170625 1.7265625 11.03125 C1.15679687 11.6809375 0.58703125 12.330625 0 13 C-0.66 13 -1.32 13 -2 13 C-1.34 8.71 -0.68 4.42 0 0 Z " fill="#805CE8" transform="translate(439,39)"/>
<path d="M0 0 C0.79921875 0.00644531 1.5984375 0.01289062 2.421875 0.01953125 C3.246875 0.03628906 4.071875 0.05304687 4.921875 0.0703125 C5.76234375 0.07933594 6.6028125 0.08835937 7.46875 0.09765625 C9.53658104 0.12115433 11.60426495 0.15702342 13.671875 0.1953125 C13.341875 0.8553125 13.011875 1.5153125 12.671875 2.1953125 C11.50269531 2.24429687 10.33351562 2.29328125 9.12890625 2.34375 C7.58070696 2.41881421 6.03253099 2.49436045 4.484375 2.5703125 C3.71544922 2.60125 2.94652344 2.6321875 2.15429688 2.6640625 C-2.06710211 2.88147361 -5.46884828 3.29274322 -9.328125 5.1953125 C-8.328125 2.1953125 -8.328125 2.1953125 -6.53613281 1.02001953 C-4.18021146 0.14006571 -2.50432202 -0.03577603 0 0 Z " fill="#8866DE" transform="translate(188.328125,4.8046875)"/>
<path d="M0 0 C1.65 0 3.3 0 5 0 C5 1.32 5 2.64 5 4 C6.11375 4.0928125 6.11375 4.0928125 7.25 4.1875 C10.87464 5.25841636 12.0371157 6.8291869 14 10 C13.67 10.99 13.34 11.98 13 13 C12.54625 12.278125 12.0925 11.55625 11.625 10.8125 C8.00936019 6.9386002 3.78637334 5.14656056 -1 3 C-0.67 2.01 -0.34 1.02 0 0 Z " fill="#7F5EDB" transform="translate(421,13)"/>
<path d="M0 0 C5.91492272 0.45224761 11.35199888 1.1582605 17 3 C17 3.66 17 4.32 17 5 C14.36 5.33 11.72 5.66 9 6 C9 5.34 9 4.68 9 4 C4.545 3.01 4.545 3.01 0 2 C0 1.34 0 0.68 0 0 Z " fill="#8863E6" transform="translate(215,126)"/>
<path d="M0 0 C1.56629708 3.01970788 2.87625164 6.08650414 4.125 9.25 C4.47820312 10.14203125 4.83140625 11.0340625 5.1953125 11.953125 C5.46085937 12.62859375 5.72640625 13.3040625 6 14 C3.6171875 13.7421875 3.6171875 13.7421875 1 13 C-0.1796875 11.2578125 -0.1796875 11.2578125 -0.875 9.125 C-1.11992187 8.42632812 -1.36484375 7.72765625 -1.6171875 7.0078125 C-2.1452289 4.23828922 -1.23286988 2.46573976 0 0 Z " fill="#7E63D6" transform="translate(344,233)"/>
<path d="M0 0 C0 0.33 0 0.66 0 1 C-0.72445312 1.08636719 -1.44890625 1.17273437 -2.1953125 1.26171875 C-8.70335288 2.20755395 -12.39019954 3.27199953 -17 8 C-17.66 8.66 -18.32 9.32 -19 10 C-19.33 8.68 -19.66 7.36 -20 6 C-13.6470057 0.3944168 -8.16813764 -0.32672551 0 0 Z " fill="#8661E9" transform="translate(200,54)"/>
<path d="M0 0 C0.66 1.32 1.32 2.64 2 4 C2 3.34 2 2.68 2 2 C3.32 1.67 4.64 1.34 6 1 C6.33 2.65 6.66 4.3 7 6 C4.69 5.67 2.38 5.34 0 5 C0 5.66 0 6.32 0 7 C-0.66 7 -1.32 7 -2 7 C-2 7.99 -2 8.98 -2 10 C-2.66 10 -3.32 10 -4 10 C-2.8905928 6.51329166 -1.73662334 3.22515763 0 0 Z " fill="#875EED" transform="translate(41,48)"/>
<path d="M0 0 C0.99 0.33 1.98 0.66 3 1 C4.6875 4.5625 4.6875 4.5625 6 8 C6.33 8 6.66 8 7 8 C7 10.31 7 12.62 7 15 C2 7.5 2 7.5 2 3 C0.68 3.99 -0.64 4.98 -2 6 C-1.125 1.125 -1.125 1.125 0 0 Z " fill="#855EE8" transform="translate(300,24)"/>
<path d="M0 0 C0.33 0 0.66 0 1 0 C1 1.98 1 3.96 1 6 C0.01 6 -0.98 6 -2 6 C-2.391875 6.928125 -2.78375 7.85625 -3.1875 8.8125 C-5.12822616 12.22550118 -6.53018941 13.31198404 -10 15 C-8.37879192 11.43503982 -6.2405574 8.40991178 -3.9375 5.25 C-3.22464844 4.26515625 -2.51179687 3.2803125 -1.77734375 2.265625 C-1.19082031 1.51796875 -0.60429687 0.7703125 0 0 Z " fill="#8C5CE2" transform="translate(186,122)"/>
<path d="M0 0 C4.62 0 9.24 0 14 0 C12.02 0.99 12.02 0.99 10 2 C9.67 2.66 9.34 3.32 9 4 C6.36 3.67 3.72 3.34 1 3 C0.67 2.01 0.34 1.02 0 0 Z " fill="#835DE9" transform="translate(425,14)"/>
<path d="M0 0 C4.28806873 0.47645208 6.26647487 1.65902484 9 5 C9 5.66 9 6.32 9 7 C6.75 6.875 6.75 6.875 4 6 C1.6875 2.9375 1.6875 2.9375 0 0 Z " fill="#8B5EE2" transform="translate(346,247)"/>
<path d="M0 0 C0.66 0.33 1.32 0.66 2 1 C2.4140625 3.72265625 2.4140625 3.72265625 2.625 7.0625 C2.69976562 8.16722656 2.77453125 9.27195313 2.8515625 10.41015625 C2.90054687 11.26480469 2.94953125 12.11945313 3 13 C2.01 12.67 1.02 12.34 0 12 C-0.19401633 10.18818595 -0.38004375 8.37551468 -0.5625 6.5625 C-0.66691406 5.55316406 -0.77132813 4.54382813 -0.87890625 3.50390625 C-0.91886719 2.67761719 -0.95882813 1.85132813 -1 1 C-0.67 0.67 -0.34 0.34 0 0 Z " fill="#845AE6" transform="translate(341,223)"/>
<path d="M0 0 C1.87365234 -0.02126953 1.87365234 -0.02126953 3.78515625 -0.04296875 C6.9375 0.1875 6.9375 0.1875 8.9375 2.1875 C6.9575 3.1775 6.9575 3.1775 4.9375 4.1875 C4.6075 3.5275 4.2775 2.8675 3.9375 2.1875 C-3.11901252 2.03774761 -3.11901252 2.03774761 -10.0625 3.1875 C-10.0625 2.5275 -10.0625 1.8675 -10.0625 1.1875 C-6.55538381 0.01846127 -3.69467614 0.01910381 0 0 Z " fill="#8863DE" transform="translate(396.0625,199.8125)"/>
<path d="M0 0 C0 0.66 0 1.32 0 2 C-0.99 2 -1.98 2 -3 2 C-3 3.32 -3 4.64 -3 6 C-3.721875 5.95875 -4.44375 5.9175 -5.1875 5.875 C-8.20729369 6.00921305 -10.26935729 6.75170619 -13 8 C-9.4918251 4.18228025 -5.53544278 0 0 0 Z " fill="#8A62E4" transform="translate(77,15)"/>
<path d="M0 0 C1.65 0.33 3.3 0.66 5 1 C4.34 4.63 3.68 8.26 3 12 C2.34 12 1.68 12 1 12 C1 9.03 1 6.06 1 3 C0.34 3 -0.32 3 -1 3 C-0.67 2.01 -0.34 1.02 0 0 Z " fill="#885EE6" transform="translate(162,161)"/>
<path d="M0 0 C0.66 0 1.32 0 2 0 C2 2.31 2 4.62 2 7 C1.67 6.01 1.34 5.02 1 4 C-1.69725519 5.88807863 -3.13216429 7.19824644 -5 10 C-5.66 9.67 -6.32 9.34 -7 9 C-7 8.34 -7 7.68 -7 7 C-5.34614767 5.65080468 -3.678298 4.31866272 -2 3 C-1.34 2.01 -0.68 1.02 0 0 Z " fill="#8562DD" transform="translate(298,134)"/>
<path d="M0 0 C2.34914492 2.34914492 2.73140357 3.95679446 3.625 7.125 C3.88539063 8.03507812 4.14578125 8.94515625 4.4140625 9.8828125 C4.70410156 10.93082031 4.70410156 10.93082031 5 12 C3.35 10.68 1.7 9.36 0 8 C0.33 6.35 0.66 4.7 1 3 C0.34 3 -0.32 3 -1 3 C-0.67 2.01 -0.34 1.02 0 0 Z " fill="#8860EB" transform="translate(372,58)"/>
<path d="M0 0 C0.66 0 1.32 0 2 0 C2.70088156 1.74468372 3.38524009 3.49601161 4.0625 5.25 C4.44535156 6.22453125 4.82820313 7.1990625 5.22265625 8.203125 C6.01113787 11.04007395 6.02437812 12.29409552 5 15 C4.16260219 12.8765984 3.33019717 10.7512272 2.5 8.625 C1.80390625 6.84996094 1.80390625 6.84996094 1.09375 5.0390625 C0 2 0 2 0 0 Z " fill="#8865DA" transform="translate(321,76)"/>
<path d="M0 0 C6.40141012 -0.51211281 9.98010898 -0.11888494 15 4 C11.14507389 5.28497537 9.59653164 4.4052209 5.8125 3.0625 C4.72582031 2.68222656 3.63914063 2.30195313 2.51953125 1.91015625 C1.68808594 1.60980469 0.85664063 1.30945313 0 1 C0 0.67 0 0.34 0 0 Z " fill="#8261E8" transform="translate(200,171)"/>
<path d="M0 0 C0.6875 1.75 0.6875 1.75 1 4 C-0.3125 6.25 -0.3125 6.25 -2 8 C-2.66 8 -3.32 8 -4 8 C-3.6875 5.125 -3.6875 5.125 -3 2 C-2.01 1.34 -1.02 0.68 0 0 Z " fill="#7860E0" transform="translate(414,89)"/>
<path d="M0 0 C3.75376152 1.25125384 4.24073289 2.5652404 6 6 C6 6.66 6 7.32 6 8 C5.01 8 4.02 8 3 8 C0.89229241 5.11165997 0 3.61537605 0 0 Z " fill="#8C5DEC" transform="translate(169,44)"/>
<path d="M0 0 C0.33 0 0.66 0 1 0 C1.48108275 1.41601714 1.95978141 2.83284437 2.4375 4.25 C2.83775391 5.43335937 2.83775391 5.43335937 3.24609375 6.640625 C3.91954708 8.74821988 4.49150595 10.84753973 5 13 C4.34 13 3.68 13 3 13 C2.30093058 11.40084119 1.61610532 9.79544955 0.9375 8.1875 C0.55464844 7.29417969 0.17179687 6.40085937 -0.22265625 5.48046875 C-1 3 -1 3 0 0 Z " fill="#8763E2" transform="translate(328,91)"/>
<path d="M0 0 C2.91488977 2.6234008 4.88503898 5.71816394 7 9 C6.67 9.66 6.34 10.32 6 11 C5.01 10.67 4.02 10.34 3 10 C1.25327015 6.5065403 0 3.93154432 0 0 Z " fill="#8C5DE7" transform="translate(94,122)"/>
<path d="M0 0 C1.65 0 3.3 0 5 0 C4.67 1.65 4.34 3.3 4 5 C1.525 4.01 1.525 4.01 -1 3 C-0.67 2.01 -0.34 1.02 0 0 Z " fill="#7155D4" transform="translate(421,13)"/>
<path d="M0 0 C0.99 0 1.98 0 3 0 C3.33 2.64 3.66 5.28 4 8 C3.67 7.34 3.34 6.68 3 6 C2.01 5.67 1.02 5.34 0 5 C0 3.35 0 1.7 0 0 Z " fill="#8862EE" transform="translate(80,83)"/>
<path d="M0 0 C0.33 0.99 0.66 1.98 1 3 C0.34 3 -0.32 3 -1 3 C-1.33 3.99 -1.66 4.98 -2 6 C-4.0625 7.1875 -4.0625 7.1875 -6 8 C-4.55746343 4.63408134 -2.66735273 2.48952921 0 0 Z " fill="#8463DE" transform="translate(378,206)"/>
<path d="M0 0 C-5.75 3.875 -5.75 3.875 -8 5 C-7.67 3.35 -7.34 1.7 -7 0 C-3.86650268 -1.04449911 -3.01031744 -0.93423645 0 0 Z " fill="#8561EB" transform="translate(176,170)"/>
<path d="M0 0 C0.33 0.66 0.66 1.32 1 2 C1.66 2.33 2.32 2.66 3 3 C1.68 4.65 0.36 6.3 -1 8 C-1 7.34 -1 6.68 -1 6 C-1.66 5.67 -2.32 5.34 -3 5 C-2.01 3.35 -1.02 1.7 0 0 Z " fill="#8063D3" transform="translate(409,95)"/>
<path d="M0 0 C0.66 0 1.32 0 2 0 C1.67 1.65 1.34 3.3 1 5 C-0.32 5 -1.64 5 -3 5 C-1.625 2.5 -1.625 2.5 0 0 Z " fill="#745BE2" transform="translate(238,77)"/>
<path d="M0 0 C2 1 2 1 3 3 C-0.78187881 4.83691257 -2.94568308 5.15837626 -7 4 C-7 3.67 -7 3.34 -7 3 C-5.5459375 2.5359375 -5.5459375 2.5359375 -4.0625 2.0625 C-1.15934208 1.30476658 -1.15934208 1.30476658 0 0 Z " fill="#8C65F6" transform="translate(267,50)"/>
<path d="M0 0 C3.37503669 1.1858237 5.64722731 2.27573689 8 5 C7.67 5.66 7.34 6.32 7 7 C6.01 6.34 5.02 5.68 4 5 C4 4.34 4 3.68 4 3 C2.68 2.67 1.36 2.34 0 2 C0 1.34 0 0.68 0 0 Z " fill="#8967DD" transform="translate(347,7)"/>
<path d="M0 0 C3.02419525 0.58803797 6.01758453 1.22678118 9 2 C9 2.66 9 3.32 9 4 C3.46153846 3.38461538 3.46153846 3.38461538 1.125 1.4375 C0.75375 0.963125 0.3825 0.48875 0 0 Z " fill="#8464E2" transform="translate(82,177)"/>
<path d="M0 0 C2.64 0 5.28 0 8 0 C7.67 1.32 7.34 2.64 7 4 C4.97954558 3.39816251 2.97888961 2.72693904 1 2 C0.67 1.34 0.34 0.68 0 0 Z " fill="#8863E7" transform="translate(72,172)"/>
<path d="M0 0 C0 3 0 3 -2.5 5.6875 C-3.325 6.450625 -4.15 7.21375 -5 8 C-5 5 -5 5 -2.5 2.3125 C-1.675 1.549375 -0.85 0.78625 0 0 Z " fill="#865DE6" transform="translate(287,168)"/>
<path d="M0 0 C1.31223496 3.93670488 0.24296256 6.12488144 -1 10 C-1.66 9.01 -2.32 8.02 -3 7 C-2.21069203 4.51064409 -1.1651105 2.330221 0 0 Z " fill="#7F68D2" transform="translate(423,71)"/>
<path d="M0 0 C1.65 0 3.3 0 5 0 C5 1.98 5 3.96 5 6 C4.34 6 3.68 6 3 6 C2.01 4.02 1.02 2.04 0 0 Z " fill="#7F56F1" transform="translate(174,52)"/>
<path d="M0 0 C0.99 0 1.98 0 3 0 C3.33 0.99 3.66 1.98 4 3 C2.68 3.99 1.36 4.98 0 6 C-0.38218767 4.34385343 -0.71395102 2.67542976 -1 1 C-0.67 0.67 -0.34 0.34 0 0 Z " fill="#845AF1" transform="translate(289,36)"/>
</svg>
