<?xml version="1.0" encoding="UTF-8"?>
<svg version="1.1" xmlns="http://www.w3.org/2000/svg" width="200" height="161">
<path d="M0 0 C66 0 132 0 200 0 C200 53.13 200 106.26 200 161 C134 161 68 161 0 161 C0 107.87 0 54.74 0 0 Z " fill="#F6F6F6" transform="translate(0,0)"/>
<path d="M0 0 C1.08539063 -0.02835938 2.17078125 -0.05671875 3.2890625 -0.0859375 C10.69342462 -0.10382243 15.56952886 1.23595272 21.625 5.5 C22.57375 6.16 23.5225 6.82 24.5 7.5 C30.52558683 13.17114055 31.28737131 20.42178895 31.81640625 28.37890625 C31.93593366 34.1082536 31.27999821 39.01781844 29.625 44.5 C30.615 44.5 31.605 44.5 32.625 44.5 C32.34209094 52.06781739 31.0352156 57.7686416 27.625 64.5 C27.0732606 65.76649271 26.53075227 67.03706981 26 68.3125 C24.625 71.5 24.625 71.5 23.4375 73.5 C21.31366233 78.72790812 22.63613804 84.428402 24.625 89.5 C26.48763792 90.57675625 26.48763792 90.57675625 28.625 91.5 C29.91511185 92.40151163 31.19571776 93.31671426 32.46875 94.2421875 C38.57430155 98.35668971 45.32038572 100.92075689 52.125 103.625 C53.4053357 104.14096587 54.68528628 104.65788844 55.96484375 105.17578125 C56.5892334 105.42817566 57.21362305 105.68057007 57.85693359 105.94061279 C59.67808285 106.6788278 61.49726928 107.42187914 63.31640625 108.16503906 C65.35452842 108.98738647 67.40249574 109.7863473 69.46484375 110.54589844 C75.26265489 112.79313004 75.26265489 112.79313004 77.0546875 116.2890625 C77.24289063 117.34867187 77.43109375 118.40828125 77.625 119.5 C78.15480469 121.27503906 78.15480469 121.27503906 78.6953125 123.0859375 C79.21738281 124.96152344 79.21738281 124.96152344 79.75 126.875 C80.27980469 128.74285156 80.27980469 128.74285156 80.8203125 130.6484375 C81.625 134.5 81.625 134.5 81.625 142.5 C29.815 142.5 -21.995 142.5 -75.375 142.5 C-75.375 128.42590206 -75.375 128.42590206 -74.125 121.9375 C-74.01542969 121.25365234 -73.90585938 120.56980469 -73.79296875 119.86523438 C-72.88353803 114.97824085 -72.88353803 114.97824085 -70.73583984 112.95849609 C-67.78454761 111.13522621 -64.80955458 109.99621125 -61.5546875 108.79296875 C-60.20046307 108.28335658 -58.84629836 107.77358571 -57.4921875 107.26367188 C-55.38077053 106.47737629 -53.26825573 105.69423106 -51.15429688 104.91479492 C-43.48489242 102.07664631 -36.18830061 99.18913009 -29.29736328 94.69262695 C-27.375 93.5 -27.375 93.5 -24.375 92.5 C-23.67562468 91.18352881 -23.00770867 89.84977849 -22.375 88.5 C-21.715 88.17 -21.055 87.84 -20.375 87.5 C-18.28088182 82.17133623 -18.32869843 78.86622417 -20 73.4375 C-20.34289062 72.27089844 -20.68578125 71.10429688 -21.0390625 69.90234375 C-22.42641246 66.3690636 -24.22623814 63.61439978 -26.375 60.5 C-28.28578521 54.86318363 -28.54257082 49.94780746 -28.34765625 44.015625 C-28.37376287 41.6138157 -28.79576872 39.81256998 -29.375 37.5 C-30.02070749 27.97581457 -30.37394478 16.48291739 -24.86328125 8.23828125 C-17.70498382 0.56522985 -10.01331336 -0.02361631 0 0 Z " fill="#838383" transform="translate(97.375,9.5)"/>
</svg>
